<svg width="25" height="25" viewBox="0 0 25 25" fill="none" xmlns="http://www.w3.org/2000/svg">
<path d="M13.5371 21.7091C14.1084 21.1378 14.1084 20.1892 13.5371 19.6178L12.4915 18.5722C11.7692 19.2945 11.0146 19.8119 11.0146 20.6635C11.0254 22.0002 12.6316 22.6254 13.5371 21.7091ZM23.4328 14.9072C22.0099 16.3301 19.6815 16.3301 18.2586 14.9072L17.213 13.8615L14.0438 17.0307L15.0894 18.0764C16.5123 19.4993 16.5123 21.8277 15.0894 23.2506C12.8041 25.5359 8.84791 23.9297 8.84791 20.6635C8.84791 18.9172 9.85044 18.141 10.9607 17.0307L7.79154 13.8615L6.74589 14.9072C5.32298 16.3301 2.99458 16.3301 1.57167 14.9072C-0.713621 12.6219 0.892547 8.66572 4.15878 8.66572C5.90511 8.66572 6.68123 9.66825 7.79154 10.7785L10.95 7.60931L9.90433 6.5637C7.62986 4.2784 9.22523 0.322266 12.5022 0.322266C15.7577 0.322266 17.3854 4.2784 15.0894 6.5637L14.0438 7.60931L17.213 10.7785L18.2586 9.73291C20.5439 7.44762 24.5 9.05381 24.5 12.32C24.5 13.2578 24.1443 14.1957 23.4328 14.9072ZM21.8805 13.3656C23.2495 11.9966 21.1691 9.90537 19.7893 11.2744L18.7437 12.32C19.4659 13.0423 19.9833 13.7969 20.8349 13.7969C21.223 13.7969 21.6003 13.6567 21.8805 13.3656ZM9.33302 12.32L12.5022 15.4892L15.6715 12.32L12.5022 9.15078L9.33302 12.32ZM13.5371 2.93094C12.1681 1.56193 10.0768 3.6424 11.4458 5.02218L12.4915 6.06783C13.2137 5.3456 13.9683 4.82816 13.9683 3.97657C13.9683 3.59928 13.8281 3.22199 13.5371 2.93094ZM3.11316 13.3656C3.68448 13.937 4.63309 13.937 5.20442 13.3656L6.25002 12.32C5.52779 11.5978 5.01037 10.8432 4.15878 10.8432C2.82211 10.854 2.19689 12.4601 3.11316 13.3656Z" fill="url(#paint0_linear_530_2889)"/>
<defs>
<linearGradient id="paint0_linear_530_2889" x1="6.31468" y1="-2.31875" x2="22.592" y2="27.1097" gradientUnits="userSpaceOnUse">
<stop offset="0.0269078" stop-color="#CC6BE7"/>
<stop offset="1" stop-color="#1A6FE9"/>
</linearGradient>
</defs>
</svg>
