<svg width="33" height="32" viewBox="0 0 33 32" fill="none" xmlns="http://www.w3.org/2000/svg">
<circle cx="16.5" cy="16" r="16" fill="#FF9F38"/>
<path fill-rule="evenodd" clip-rule="evenodd" d="M23.7932 13.3738C24.1126 11.2724 22.4879 10.1425 20.268 9.38859L20.9883 6.54133L19.2303 6.11023L18.5283 8.8823C18.076 8.77039 17.612 8.66617 17.1487 8.5621L17.1487 8.56209L17.1192 8.55547L17.8263 5.76535L16.0683 5.33325L15.348 8.17951L15.2711 8.16219C14.915 8.08197 14.5646 8.00303 14.2248 7.91885L14.2268 7.90982L11.8014 7.3133L11.3334 9.16402C11.3334 9.16402 12.6387 9.45877 12.6112 9.47682C13.3234 9.65227 13.4516 10.1164 13.4302 10.4854L12.6102 13.7287C12.659 13.7407 12.7221 13.7587 12.7933 13.7858L12.6071 13.7407L11.4575 18.2843C11.37 18.4968 11.1492 18.8166 10.6507 18.6953C10.669 18.7204 9.37291 18.3815 9.37291 18.3815L8.5 20.3646L10.7891 20.927C11.0349 20.9879 11.2779 21.0504 11.5185 21.1122L11.5186 21.1123L11.5189 21.1124C11.6944 21.1575 11.8686 21.2023 12.0415 21.2458L11.3141 24.1252L13.0711 24.5563L13.7914 21.709C14.2716 21.8363 14.7375 21.9546 15.1933 22.0669L14.475 24.9022L16.2331 25.3333L16.9605 22.4599C19.9597 23.0194 22.2142 22.7938 23.1634 20.121C23.9285 17.9695 23.1258 16.7273 21.5478 15.9182C22.6975 15.6576 23.5622 14.9127 23.7932 13.3738ZM19.7746 18.9259C19.2771 20.9005 16.141 20.0842 14.7055 19.7105L14.7055 19.7105C14.5762 19.6769 14.4607 19.6468 14.3621 19.6227L15.3286 15.808C15.4488 15.8376 15.5958 15.8701 15.7622 15.907L15.7622 15.907C17.2471 16.2357 20.2859 16.9084 19.7746 18.9259ZM16.0604 14.1362C17.2566 14.4509 19.8648 15.1371 20.3188 13.3427C20.7833 11.5074 18.2478 10.9546 17.0093 10.6846C16.8697 10.6542 16.7466 10.6274 16.6461 10.6027L15.7712 14.0615C15.8541 14.0819 15.9514 14.1075 16.0604 14.1362Z" fill="white"/>
</svg>
