<svg width="25" height="24" viewBox="0 0 25 24" fill="none" xmlns="http://www.w3.org/2000/svg">
<path d="M0.98267 15.3686C0.31634 13.0908 0.340406 10.6667 1.05182 8.40258C1.76324 6.13851 3.13006 4.13622 4.97945 2.6489C6.82884 1.16159 9.07774 0.256035 11.4418 0.0467556C13.8058 -0.162524 16.1788 0.333871 18.2608 1.47316C20.3427 2.61246 22.04 4.34349 23.1382 6.44737C24.2363 8.55125 24.6859 10.9335 24.4301 13.2929C24.1743 15.6523 23.2246 17.8828 21.7011 19.7025C20.1776 21.5222 18.1487 22.8492 15.871 23.5159C14.3584 23.9591 12.7734 24.0999 11.2064 23.9303C9.63935 23.7607 8.12113 23.2839 6.73847 22.5273C5.35581 21.7707 4.13581 20.749 3.1482 19.5207C2.16059 18.2923 1.42473 16.8814 0.98267 15.3686Z" fill="black"/>
<path d="M12.2691 13.8335L16.9143 11.7671L12.5668 3.57323L7.75461 11.5014L12.2691 13.8335Z" fill="white"/>
<path d="M12.5668 3.57323L12.4551 13.839L7.7546 11.5014L12.5668 3.57323Z" fill="#E7E9EE"/>
<path d="M12.2523 20.8013L17.2604 12.5102L12.4287 14.6687L7.7392 12.2368L12.2523 20.8013Z" fill="white"/>
<path d="M12.397 9.43749L16.9162 11.7672L12.2709 13.8335L7.75646 11.5014L12.397 9.43749Z" fill="#7062FF" fill-opacity="0.7"/>
<path d="M7.75646 11.5014L12.397 9.43749L12.2709 13.8335L7.75646 11.5014Z" fill="#7D70FF"/>
<path d="M7.72742 12.2517L12.4169 14.6836L12.2405 20.8162L7.72742 12.2517Z" fill="#E7E9EE"/>
</svg>
