<svg width="67" height="69" viewBox="0 0 67 69" fill="none" xmlns="http://www.w3.org/2000/svg">
<g opacity="0.6" filter="url(#filter0_f_462_32381)">
<path d="M41 31.5H37.625V28.875C37.625 27.781 37.1904 26.7318 36.4168 25.9582C35.6432 25.1846 34.594 24.75 33.5 24.75C32.406 24.75 31.3568 25.1846 30.5832 25.9582C29.8096 26.7318 29.375 27.781 29.375 28.875V31.5H26C25.6022 31.5 25.2206 31.658 24.9393 31.9393C24.658 32.2206 24.5 32.6022 24.5 33V43.5C24.5 43.8978 24.658 44.2794 24.9393 44.5607C25.2206 44.842 25.6022 45 26 45H41C41.3978 45 41.7794 44.842 42.0607 44.5607C42.342 44.2794 42.5 43.8978 42.5 43.5V33C42.5 32.6022 42.342 32.2206 42.0607 31.9393C41.7794 31.658 41.3978 31.5 41 31.5ZM33.5 39.375C33.2775 39.375 33.06 39.309 32.875 39.1854C32.69 39.0618 32.5458 38.8861 32.4606 38.6805C32.3755 38.475 32.3532 38.2488 32.3966 38.0305C32.44 37.8123 32.5472 37.6118 32.7045 37.4545C32.8618 37.2972 33.0623 37.19 33.2805 37.1466C33.4988 37.1032 33.725 37.1255 33.9305 37.2106C34.1361 37.2958 34.3118 37.44 34.4354 37.625C34.559 37.81 34.625 38.0275 34.625 38.25C34.625 38.5484 34.5065 38.8345 34.2955 39.0455C34.0845 39.2565 33.7984 39.375 33.5 39.375ZM36.125 31.5H30.875V28.875C30.875 28.1788 31.1516 27.5111 31.6438 27.0188C32.1361 26.5266 32.8038 26.25 33.5 26.25C34.1962 26.25 34.8639 26.5266 35.3562 27.0188C35.8484 27.5111 36.125 28.1788 36.125 28.875V31.5Z" fill="url(#paint0_linear_462_32381)"/>
</g>
<path d="M41 31.5H37.625V28.875C37.625 27.781 37.1904 26.7318 36.4168 25.9582C35.6432 25.1846 34.594 24.75 33.5 24.75C32.406 24.75 31.3568 25.1846 30.5832 25.9582C29.8096 26.7318 29.375 27.781 29.375 28.875V31.5H26C25.6022 31.5 25.2206 31.658 24.9393 31.9393C24.658 32.2206 24.5 32.6022 24.5 33V43.5C24.5 43.8978 24.658 44.2794 24.9393 44.5607C25.2206 44.842 25.6022 45 26 45H41C41.3978 45 41.7794 44.842 42.0607 44.5607C42.342 44.2794 42.5 43.8978 42.5 43.5V33C42.5 32.6022 42.342 32.2206 42.0607 31.9393C41.7794 31.658 41.3978 31.5 41 31.5ZM33.5 39.375C33.2775 39.375 33.06 39.309 32.875 39.1854C32.69 39.0618 32.5458 38.8861 32.4606 38.6805C32.3755 38.475 32.3532 38.2488 32.3966 38.0305C32.44 37.8123 32.5472 37.6118 32.7045 37.4545C32.8618 37.2972 33.0623 37.19 33.2805 37.1466C33.4988 37.1032 33.725 37.1255 33.9305 37.2106C34.1361 37.2958 34.3118 37.44 34.4354 37.625C34.559 37.81 34.625 38.0275 34.625 38.25C34.625 38.5484 34.5065 38.8345 34.2955 39.0455C34.0845 39.2565 33.7984 39.375 33.5 39.375ZM36.125 31.5H30.875V28.875C30.875 28.1788 31.1516 27.5111 31.6438 27.0188C32.1361 26.5266 32.8038 26.25 33.5 26.25C34.1962 26.25 34.8639 26.5266 35.3562 27.0188C35.8484 27.5111 36.125 28.1788 36.125 28.875V31.5Z" fill="url(#paint1_linear_462_32381)"/>
<rect x="12" y="14.5" width="43" height="43" rx="21.5" stroke="white" stroke-opacity="0.04"/>
<defs>
<filter id="filter0_f_462_32381" x="-2.5" y="0" width="72" height="72" filterUnits="userSpaceOnUse" color-interpolation-filters="sRGB">
<feFlood flood-opacity="0" result="BackgroundImageFix"/>
<feBlend mode="normal" in="SourceGraphic" in2="BackgroundImageFix" result="shape"/>
<feGaussianBlur stdDeviation="12" result="effect1_foregroundBlur_462_32381"/>
</filter>
<linearGradient id="paint0_linear_462_32381" x1="33.5" y1="24.75" x2="33.5" y2="45" gradientUnits="userSpaceOnUse">
<stop stop-color="#E1B84F"/>
<stop offset="1" stop-color="#F8E8BF"/>
</linearGradient>
<linearGradient id="paint1_linear_462_32381" x1="33.5" y1="24.75" x2="33.5" y2="45" gradientUnits="userSpaceOnUse">
<stop stop-color="#E1B84F"/>
<stop offset="1" stop-color="#F8E8BF"/>
</linearGradient>
</defs>
</svg>
