<svg width="19" height="15" viewBox="0 0 19 15" fill="none" xmlns="http://www.w3.org/2000/svg">
<path fill-rule="evenodd" clip-rule="evenodd" d="M5.68237 13.75L8.03368 14.3303V13.5714L8.22562 13.3928H9.56922V14.2857V14.9107H8.12965L6.35417 14.1964L5.68237 13.75Z" fill="#CDBDB2"/>
<path fill-rule="evenodd" clip-rule="evenodd" d="M13.3601 13.75L11.0568 14.3303V13.5714L10.8648 13.3928H9.52124V14.2857V14.9107H10.9608L12.7363 14.1964L13.3601 13.75Z" fill="#CDBDB2"/>
<path fill-rule="evenodd" clip-rule="evenodd" d="M8.22563 12.0982L8.03369 13.5714L8.27362 13.3929H10.7689L11.0568 13.5714L10.8649 12.0982L10.481 11.875L8.56154 11.9196L8.22563 12.0982Z" fill="#393939"/>
<path fill-rule="evenodd" clip-rule="evenodd" d="M6.93005 2.14282L8.08171 4.64282L8.60956 11.9196H10.481L11.0568 4.64282L12.1125 2.14282H6.93005Z" fill="#F89C35"/>
<path fill-rule="evenodd" clip-rule="evenodd" d="M1.89133 7.63396L0.547729 11.25L3.90673 11.0715H6.06609V9.50896L5.97012 6.29468L5.49027 6.65182L1.89133 7.63396Z" fill="#F89D35"/>
<path fill-rule="evenodd" clip-rule="evenodd" d="M4.43481 8.03564L8.36965 8.12493L7.93778 9.99993L6.06633 9.5535L4.43481 8.03564Z" fill="#D87C30"/>
<path fill-rule="evenodd" clip-rule="evenodd" d="M4.43481 8.08032L6.06633 9.50889V10.9375L4.43481 8.08032Z" fill="#EA8D3A"/>
<path fill-rule="evenodd" clip-rule="evenodd" d="M6.06628 9.55371L7.98572 10.0001L8.60953 11.9198L8.17766 12.143L6.06628 10.9823V9.55371Z" fill="#F89D35"/>
<path fill-rule="evenodd" clip-rule="evenodd" d="M6.06626 10.9822L5.68237 13.75L8.22562 12.0983L6.06626 10.9822Z" fill="#EB8F35"/>
<path fill-rule="evenodd" clip-rule="evenodd" d="M8.36963 8.125L8.60956 11.9196L7.88977 9.97768L8.36963 8.125Z" fill="#EA8E3A"/>
<path fill-rule="evenodd" clip-rule="evenodd" d="M3.85889 11.0268L6.06623 10.9822L5.68235 13.75L3.85889 11.0268Z" fill="#D87C30"/>
<path fill-rule="evenodd" clip-rule="evenodd" d="M1.60342 14.9554L5.68221 13.7501L3.85875 11.0269L0.547729 11.2501L1.60342 14.9554Z" fill="#EB8F35"/>
<path fill-rule="evenodd" clip-rule="evenodd" d="M8.08173 4.64282L6.01835 6.24997L4.43481 8.03568L8.36965 8.16961L8.08173 4.64282Z" fill="#E8821E"/>
<path fill-rule="evenodd" clip-rule="evenodd" d="M5.68237 13.7499L8.22562 12.0981L8.03368 13.5267V14.3303L6.30619 14.0178L5.68237 13.7499Z" fill="#DFCEC3"/>
<path fill-rule="evenodd" clip-rule="evenodd" d="M13.3601 13.7499L10.8648 12.0981L11.0568 13.5267V14.3303L12.7843 14.0178L13.3601 13.7499Z" fill="#DFCEC3"/>
<path fill-rule="evenodd" clip-rule="evenodd" d="M7.31395 8.92871L7.8418 9.9555L5.97035 9.50907L7.31395 8.92871Z" fill="#393939"/>
<path fill-rule="evenodd" clip-rule="evenodd" d="M1.55566 0.0446777L8.08173 4.64289L6.97806 2.14289L1.55566 0.0446777Z" fill="#E88F35"/>
<path fill-rule="evenodd" clip-rule="evenodd" d="M1.55564 0.0446777L0.691895 2.50004L1.17175 5.17861L0.835852 5.35718L1.31571 5.75896L0.931823 6.07146L1.45967 6.51789L1.12377 6.78575L1.89154 7.67861L5.49047 6.65182C7.24995 5.3423 8.11369 4.67265 8.0817 4.64289C8.04971 4.61313 5.87436 3.08039 1.55564 0.0446777Z" fill="#8E5A30"/>
<path fill-rule="evenodd" clip-rule="evenodd" d="M17.151 7.63396L18.4946 11.25L15.1356 11.0715H12.9763V9.50896L13.0722 6.29468L13.5521 6.65182L17.151 7.63396Z" fill="#F89D35"/>
<path fill-rule="evenodd" clip-rule="evenodd" d="M14.6078 8.03564L10.673 8.12493L11.1048 9.99993L12.9763 9.5535L14.6078 8.03564Z" fill="#D87C30"/>
<path fill-rule="evenodd" clip-rule="evenodd" d="M14.6078 8.08032L12.9763 9.50889V10.9375L14.6078 8.08032Z" fill="#EA8D3A"/>
<path fill-rule="evenodd" clip-rule="evenodd" d="M12.9763 9.55371L11.0569 10.0001L10.4331 11.9198L10.8649 12.143L12.9763 10.9823V9.55371Z" fill="#F89D35"/>
<path fill-rule="evenodd" clip-rule="evenodd" d="M12.9762 10.9822L13.3601 13.75L10.8648 12.1429L12.9762 10.9822Z" fill="#EB8F35"/>
<path fill-rule="evenodd" clip-rule="evenodd" d="M10.673 8.125L10.433 11.9196L11.1528 9.97768L10.673 8.125Z" fill="#EA8E3A"/>
<path fill-rule="evenodd" clip-rule="evenodd" d="M15.1836 11.0268L12.9762 10.9822L13.3601 13.75L15.1836 11.0268Z" fill="#D87C30"/>
<path fill-rule="evenodd" clip-rule="evenodd" d="M17.4389 14.9554L13.3602 13.7501L15.1836 11.0269L18.4946 11.2501L17.4389 14.9554Z" fill="#EB8F35"/>
<path fill-rule="evenodd" clip-rule="evenodd" d="M10.9609 4.64282L13.0243 6.24997L14.6078 8.03568L10.673 8.16961L10.9609 4.64282Z" fill="#E8821E"/>
<path fill-rule="evenodd" clip-rule="evenodd" d="M11.7286 8.92871L11.2008 9.9555L13.0723 9.50907L11.7286 8.92871Z" fill="#393939"/>
<path fill-rule="evenodd" clip-rule="evenodd" d="M17.4869 0.0446777L10.9609 4.64289L12.0645 2.14289L17.4869 0.0446777Z" fill="#E88F35"/>
<path fill-rule="evenodd" clip-rule="evenodd" d="M17.4877 0.0446777L18.3514 2.50004L17.8716 5.17861L18.2075 5.35718L17.7276 5.75896L18.1115 6.07146L17.5837 6.51789L17.9196 6.78575L17.1518 7.67861L13.5529 6.65182C11.7934 5.3423 10.9296 4.67265 10.9616 4.64289C10.9936 4.61313 13.169 3.08039 17.4877 0.0446777Z" fill="#8E5A30"/>
</svg>
