<svg width="67" height="69" viewBox="0 0 67 69" fill="none" xmlns="http://www.w3.org/2000/svg">
<g opacity="0.6" filter="url(#filter0_f_504_21164)">
<path d="M41.3145 31H37.9395V28.375C37.9395 27.281 37.5049 26.2318 36.7313 25.4582C35.9577 24.6846 34.9085 24.25 33.8145 24.25C32.7204 24.25 31.6712 24.6846 30.8976 25.4582C30.124 26.2318 29.6895 27.281 29.6895 28.375V31H26.3145C25.9166 31 25.5351 31.158 25.2538 31.4393C24.9725 31.7206 24.8145 32.1022 24.8145 32.5V43C24.8145 43.3978 24.9725 43.7794 25.2538 44.0607C25.5351 44.342 25.9166 44.5 26.3145 44.5H41.3145C41.7123 44.5 42.0938 44.342 42.3751 44.0607C42.6564 43.7794 42.8145 43.3978 42.8145 43V32.5C42.8145 32.1022 42.6564 31.7206 42.3751 31.4393C42.0938 31.158 41.7123 31 41.3145 31ZM33.8145 38.875C33.5919 38.875 33.3744 38.809 33.1894 38.6854C33.0044 38.5618 32.8602 38.3861 32.7751 38.1805C32.6899 37.975 32.6677 37.7488 32.7111 37.5305C32.7545 37.3123 32.8616 37.1118 33.019 36.9545C33.1763 36.7972 33.3767 36.69 33.595 36.6466C33.8132 36.6032 34.0394 36.6255 34.245 36.7106C34.4505 36.7958 34.6262 36.94 34.7499 37.125C34.8735 37.31 34.9395 37.5275 34.9395 37.75C34.9395 38.0484 34.8209 38.3345 34.6099 38.5455C34.399 38.7565 34.1128 38.875 33.8145 38.875ZM36.4395 31H31.1895V28.375C31.1895 27.6788 31.466 27.0111 31.9583 26.5188C32.4506 26.0266 33.1183 25.75 33.8145 25.75C34.5106 25.75 35.1783 26.0266 35.6706 26.5188C36.1629 27.0111 36.4395 27.6788 36.4395 28.375V31Z" fill="url(#paint0_linear_504_21164)"/>
</g>
<path d="M45.1688 29.5703C44.9231 29.2966 44.623 29.0774 44.2877 28.9265C43.9524 28.7756 43.5893 28.6964 43.2216 28.694H37.391V26.9632C37.3881 25.8165 36.9313 24.7176 36.1204 23.9067C35.3096 23.0959 34.2107 22.6391 33.0639 22.6362C32.9032 22.6375 32.7458 22.6825 32.6086 22.7663C32.4714 22.8502 32.3596 22.9697 32.2851 23.1122L28.1961 31.2902H23.5445C23.0855 31.2902 22.6452 31.4726 22.3207 31.7972C21.9961 32.1218 21.8137 32.562 21.8137 33.0211V42.5405C21.8137 42.9995 21.9961 43.4397 22.3207 43.7643C22.6452 44.0889 23.0855 44.2713 23.5445 44.2713H41.9235C42.555 44.2687 43.164 44.0369 43.6376 43.6191C44.1111 43.2013 44.4168 42.6258 44.4981 41.9996L45.7962 31.6148C45.8394 31.2491 45.8059 30.8784 45.6978 30.5264C45.5898 30.1744 45.4096 29.8488 45.1688 29.5703ZM23.5445 33.0211H27.8715V42.5405H23.5445V33.0211Z" fill="url(#paint1_linear_504_21164)"/>
<rect x="12.3145" y="14" width="43" height="43" rx="21.5" stroke="white" stroke-opacity="0.04"/>
<defs>
<filter id="filter0_f_504_21164" x="-2.18555" y="-0.5" width="72" height="72" filterUnits="userSpaceOnUse" color-interpolation-filters="sRGB">
<feFlood flood-opacity="0" result="BackgroundImageFix"/>
<feBlend mode="normal" in="SourceGraphic" in2="BackgroundImageFix" result="shape"/>
<feGaussianBlur stdDeviation="12" result="effect1_foregroundBlur_504_21164"/>
</filter>
<linearGradient id="paint0_linear_504_21164" x1="33.8145" y1="24.25" x2="33.8145" y2="44.5" gradientUnits="userSpaceOnUse">
<stop stop-color="#E1B84F"/>
<stop offset="1" stop-color="#F8E8BF"/>
</linearGradient>
<linearGradient id="paint1_linear_504_21164" x1="33.8141" y1="22.6362" x2="33.8141" y2="44.2713" gradientUnits="userSpaceOnUse">
<stop stop-color="#E1B84F"/>
<stop offset="1" stop-color="#F8E8BF"/>
</linearGradient>
</defs>
</svg>
